<svg xmlns="http://www.w3.org/2000/svg" viewBox="0 0 720 780"><rect width="720" height="780" fill="#f7f9fc"/><style>text{font:600 28px sans-serif;fill:#10213f}.s{stroke:#10213f;stroke-width:5;fill:none;stroke-linejoin:round;stroke-linecap:round}</style><g transform="translate(280 75)"><rect width="160" height="160" fill="white" stroke="#b98b36" stroke-width="3" stroke-dasharray="8 6"/><path class="s" d="M45 0l0 -32"/><circle cx="45" cy="-54" r="11" class="s"/><path class="s" d="M115 0l0 -32"/><path d="M115 -66l-12 23h24Z" class="s"/><path class="s" d="M160 80l32 0"/><path d="M214 68l-12 23h24Z" class="s"/><path class="s" d="M115 160l0 32"/><rect x="105" y="204" width="20" height="20" class="s"/><path class="s" d="M45 160l0 32"/><rect x="35" y="204" width="20" height="20" class="s"/><path class="s" d="M0 80l-32 0"/><circle cx="-54" cy="80" r="11" class="s"/></g><text x="195" y="329" text-anchor="middle">A</text><g transform="translate(115 345)"><rect width="160" height="160" fill="white" stroke="#c9d2df" stroke-width="2"/><path class="s" d="M45 0Q80 80 0 80"/><path class="s" d="M115 0Q80 80 160 80"/><path class="s" d="M115 160Q80 80 45 160"/></g><text x="535" y="329" text-anchor="middle">B</text><g transform="translate(455 345)"><rect width="160" height="160" fill="white" stroke="#c9d2df" stroke-width="2"/><path class="s" d="M45 0Q80 80 115 0"/><path class="s" d="M160 80Q80 80 115 160"/><path class="s" d="M45 160Q80 80 0 80"/></g><text x="195" y="559" text-anchor="middle">C</text><g transform="translate(115 575)"><rect width="160" height="160" fill="white" stroke="#c9d2df" stroke-width="2"/><path class="s" d="M45 0Q80 80 115 0"/><path class="s" d="M160 80Q80 80 0 80"/><path class="s" d="M115 160Q80 80 45 160"/></g><text x="535" y="559" text-anchor="middle">D</text><g transform="translate(455 575)"><rect width="160" height="160" fill="white" stroke="#c9d2df" stroke-width="2"/><path class="s" d="M45 0Q80 80 115 160"/><path class="s" d="M115 0Q80 80 160 80"/><path class="s" d="M45 160Q80 80 0 80"/></g></svg>